PathFileType	4	(X/Y/Z)	C:\Users\°ÂÌØÂü\Desktop\20210112\bx_n_0_502-Unnamed.trc
DataRate	CameraRate	NumFrames	NumMarkers	Units	OrigDataRate	OrigDataStartFrame	OrigNumFrames
50.00	50.00	       7	0	mm	50.00	189	       376
Frame#	Time	
		

189	3.760	-696.90607	204.41229	1024.98181	-792.43695	261.26993	874.57135	-697.59967	-29.73563	804.53644	-691.48328	189.31392	796.07538	-776.96082	255.99416	739.84918	-794.17523	239.35535	635.50647	-779.53815	233.25642	573.03839	-720.67731	5.60884	523.89703	-727.14514	184.60291	536.99744	-805.50629	252.52083	495.81122	-478.42630	75.02497	1166.97156	-641.45135	-61.54465	161.36063	-764.90741	224.83527	204.44051	-599.07501	-64.82448	155.88028	-882.68622	296.10712	144.65640	-676.98724	56.53349	160.58894	-600.34381	37.87687	167.19078	-546.19922	-11.36964	161.80901	-517.94177	-72.92817	143.09164	-590.20892	182.52089	173.72110	-640.40430	273.72131	160.22952	-602.23218	273.31921	160.14328	-548.43079	211.18527	163.73201	-528.22644	304.02121	146.20396	-269.70496	90.80292	1633.11230	-425.59140	254.66675	1371.94421				-797.84033	182.15814	182.37839	-399.91766	-100.81400	1362.24573	-794.30261	31.71581	174.51454	-880.24158	65.20182	1102.75696	-800.36584	-62.60682	478.26517	-761.65686	60.71949	570.65973	-876.12219	-78.89765	141.41621	-786.82800	-97.40800	866.28644	-782.67548	-86.78999	748.01385	-772.39661	-52.05398	609.91449	-772.48224	-47.86559	563.30847	-724.32135	143.69281	219.17648	-758.70813	-24.36128	204.22037	-705.06873	-36.43775	1006.17761				-758.34906	125.25447	570.27081	-728.11487	66.79832	219.66135	
190	3.780	-697.04010	204.39563	1025.56836	-792.78540	260.90018	874.43445	-697.31329	-29.97178	804.46478	-691.54742	189.49883	796.33295	-777.04425	255.95848	740.05212	-794.18231	239.06471	635.41498	-779.48669	233.32831	573.01782	-720.33087	5.21378	523.80920	-727.07178	184.52463	536.94812	-805.23792	252.32620	495.89569	-479.59949	75.03331	1169.44336	-641.35370	-61.60101	161.42554	-764.90741	224.83527	204.44051	-599.16022	-64.88116	155.95200	-882.59436	296.02475	144.50275	-677.02490	56.51291	160.87526	-600.36035	37.94222	167.42099	-546.20978	-11.20559	161.59311	-517.81085	-72.96118	143.22667	-590.24567	182.63750	173.64183	-640.46332	273.84573	160.15880	-601.70667	273.64841	160.53365	-548.42468	211.30730	163.58133	-528.28455	303.93750	146.12692	-274.03015	91.21043	1637.14502	-428.78592	255.26108	1374.76978				-797.88544	181.96768	182.52011	-402.19199	-100.39386	1365.45764	-794.26953	31.54194	174.52348	-880.61707	64.86140	1102.29810	-800.31525	-62.73663	478.10583	-761.87469	60.47324	570.52863	-875.78070	-78.64841	140.93260	-786.55090	-97.49590	866.17712	-782.67548	-86.78999	748.01385	-772.34918	-52.17727	609.76440	-772.47974	-48.15529	563.17346	-724.25818	143.55951	219.11493	-758.46777	-24.45124	203.87883	-704.76807	-36.25646	1006.84045				-758.23059	125.06763	570.34729	-728.11487	66.79832	219.66135	
191	3.800	-697.35010	204.49971	1026.35840	-792.72852	260.81247	874.47247	-697.00342	-30.16831	804.43597	-691.58533	189.37411	796.23999	-777.06250	255.53683	739.97400	-793.92462	238.62326	635.44714	-779.44135	233.17136	573.07031	-720.44318	4.94379	523.78668	-726.30743	184.31552	537.41431	-805.20911	252.12926	495.84360	-480.80609	75.49927	1171.91711	-641.45135	-61.54465	161.36063	-764.90741	224.83527	204.44051	-599.21417	-64.90802	156.26651	-882.64819	296.19293	144.56335	-677.01355	56.71412	161.33508	-600.54132	37.78980	167.45932	-546.17456	-11.31621	161.71481	-518.02155	-72.87640	142.92542	-590.24567	182.63750	173.64183	-640.37872	273.84927	160.07095	-602.16345	273.27231	160.06145	-548.45483	211.29723	163.76785	-528.22241	304.05054	146.20580	-278.91632	91.71636	1641.13379	-431.54462	255.55994	1377.93286	-679.72156	156.79874	159.53920	-797.91809	181.87035	182.40320	-405.11633	-100.41728	1368.13855	-794.31525	31.67186	174.57303	-880.97290	64.61587	1102.11450	-799.44647	-63.23750	478.47684	-761.58173	60.15094	570.40405	-875.76721	-78.54784	141.02655	-786.39429	-97.52631	866.08850	-782.57312	-86.94301	748.16302	-772.18616	-52.25945	609.73572	-772.26648	-48.34998	563.13519	-724.02911	143.74359	219.06003	-758.20160	-24.51070	204.12737	-704.50409	-36.49017	1007.51373				-758.12823	124.95888	570.27655	-728.11462	66.71832	219.70506	
192	3.820	-697.88629	203.85542	1026.59961	-792.73450	260.41010	874.34717	-696.72247	-30.46113	804.44165	-691.46997	189.59096	796.51746	-777.02283	255.60889	740.37122	-793.59149	238.45358	635.65710	-779.33075	233.10196	573.06628	-720.33832	4.88861	523.69934	-726.17395	184.39830	537.63202	-805.10083	251.99539	495.84198	-482.20349	75.58084	1174.49731	-641.35370	-61.60101	161.42554	-764.90741	224.83527	204.44051	-599.18671	-64.96492	156.09348	-882.67554	296.10999	144.59763	-677.02887	56.67682	161.32451	-600.36035	37.94222	167.42099	-546.18616	-11.17423	161.65935	-518.00769	-72.99992	143.10075	-590.20892	182.52089	173.72110	-640.56598	273.73572	160.03430	-602.17114	273.25470	160.06375	-548.44336	211.24710	163.66342	-528.22522	304.09174	146.31163	-283.79590	91.82806	1645.62537	-434.60620	255.69719	1380.83716	-679.72156	156.79874	159.53920	-797.92279	181.87056	182.38315	-407.41647	-99.95702	1371.25867	-794.30469	31.58832	174.44778	-881.55090	64.25523	1101.70520	-799.44647	-63.23750	478.47684	-761.28271	60.20831	570.45764				-786.02905	-97.47173	866.16577	-782.12451	-86.89764	748.27124	-772.11285	-52.35725	609.75903	-772.25421	-48.42801	563.11774	-724.06482	143.27448	219.15204	-758.34082	-24.46463	204.01451	-704.53668	-36.70978	1008.24213	-876.12219	-78.89765	141.41621	-757.90448	124.84794	570.39185	-728.11462	66.71832	219.70506	
193	3.840	-697.74615	203.97023	1026.76196	-792.88574	260.40039	874.34399	-696.27686	-30.47841	804.46259	-691.46997	189.59096	796.51746	-776.94916	255.42982	740.43323	-793.41687	238.35765	635.59967	-779.07489	232.83702	572.90985	-720.15936	4.83507	523.79987	-726.37286	184.32843	537.12640	-805.26453	251.95329	495.98492	-483.52979	76.07004	1177.22314	-641.35370	-61.60101	161.42554	-764.96320	224.76399	204.46133	-599.16022	-64.88116	155.95200	-882.76404	296.10663	144.64676	-677.01355	56.71412	161.33508	-600.43433	37.83366	167.59850	-546.23334	-11.37942	161.73546	-517.97253	-72.85222	142.99847	-590.32300	182.68860	173.61636	-640.50702	273.61130	160.10504	-601.77753	273.69510	160.61250	-548.43591	211.32596	163.85304	-528.23267	303.89713	146.20523	-288.57126	92.06124	1649.88086	-437.37170	255.82372	1383.52759	-679.72156	156.79874	159.53920	-797.86993	181.72574	182.40150	-410.18719	-100.21092	1374.52588	-794.30865	31.66716	174.57927	-882.08307	64.29144	1101.43396	-800.32367	-62.67261	478.17560	-761.38690	60.13203	570.37018				-785.74957	-97.50328	866.26654	-782.02722	-86.96864	748.33130	-772.04181	-52.73174	609.65057	-772.02502	-48.52922	563.16125	-723.96448	143.42372	219.05750	-758.30957	-24.60887	203.88629	-704.33484	-36.77935	1009.54291	-876.14905	-78.79788	141.54057	-757.67938	124.62422	570.10681	-728.11462	66.71832	219.70506	
194	3.860	-698.57574	204.16170	1027.55115	-792.79700	260.26224	874.40533	-695.96674	-30.59174	804.46021	-691.46997	189.59096	796.51746	-777.07080	255.38510	740.26953	-793.42670	238.31848	635.79846	-779.07617	232.72751	573.05341	-719.89612	4.99428	523.35480	-726.05188	184.18184	537.20337	-804.89337	251.79652	496.05710	-484.54733	76.39130	1179.93542	-641.35370	-61.60101	161.42554	-764.83588	224.64680	204.47009	-599.16022	-64.88116	155.95200	-882.79883	296.07877	144.53491	-676.85193	56.73608	161.06783	-600.38928	37.76095	167.42194	-546.25134	-11.25849	161.78970	-517.94177	-72.92817	143.09164	-590.22144	182.41722	173.53894	-640.43878	273.63086	160.02885	-602.25452	273.32971	160.11935	-548.47363	211.38116	163.85701	-527.98083	303.92966	146.42943	-293.70892	92.30585	1653.90479	-440.38962	255.76443	1386.47510				-797.86993	181.72574	182.40150	-412.91391	-100.02128	1377.78455	-794.21667	31.58804	174.45512	-882.64728	63.74985	1100.43469	-800.06488	-63.13565	478.01578	-761.09302	60.06254	570.59412				-785.40442	-97.55275	865.98145	-781.65820	-87.19926	748.55658	-771.73517	-52.61602	609.47083	-771.84125	-48.55505	562.98401	-724.15204	143.64316	218.68193	-758.30957	-24.60887	203.88629	-704.14764	-36.61834	1009.94922	-876.03900	-78.89625	141.35916	-757.51459	124.80836	570.12909	-728.11462	66.71832	219.70506	
195	3.880	-698.92682	204.16090	1028.15295	-792.91443	260.27783	874.43951	-695.81659	-30.41060	804.52271	-691.39038	189.67992	796.59845	-776.77051	255.09953	740.33917	-793.42670	238.31848	635.79846	-778.84052	232.70738	573.08807	-719.74451	4.70387	523.38043	-726.15515	184.11227	537.03876	-805.13092	251.56053	495.89975	-486.18967	76.78288	1182.76257	-641.45135	-61.54465	161.36063	-765.03009	224.72113	204.43643	-599.26691	-64.83038	155.62675	-882.73151	296.23560	144.78842	-677.17407	56.87736	161.20001	-600.39063	37.84292	167.31606	-546.31653	-11.20781	161.78674	-517.93433	-73.00253	143.19337	-590.24567	182.63750	173.64183	-640.48029	273.77460	160.31590	-602.26892	273.39941	160.05009	-548.52789	211.24472	163.79973	-528.19928	304.08939	146.20084	-299.15366	91.98396	1658.08252	-443.68451	256.29443	1389.71350				-797.95532	181.72569	182.35220	-415.78247	-99.54142	1380.84766	-794.31042	31.60583	174.51802	-882.87177	63.68511	1100.18164	-799.92090	-63.26062	478.08990	-760.79498	59.82735	570.85181				-784.74127	-97.79245	866.41107	-781.40039	-87.25539	748.40759	-771.29242	-52.78376	609.72333	-771.77240	-48.74086	563.12653	-724.20020	143.28583	218.76694	-758.61743	-24.53387	203.60121	-703.94928	-36.50702	1010.37195	-876.12219	-78.89765	141.41621	-757.33148	124.83244	570.08002	-728.11462	66.71832	219.70506	
